<svg xmlns="http://www.w3.org/2000/svg" xmlns:xlink="http://www.w3.org/1999/xlink" version="1.1" x="0px" y="0px" viewBox="0 0 100 125" enable-background="new 0 0 100 100" xml:space="preserve"><path fill="#9e1b32" d="M5,89.012v4.766h61.207l-7.437-4.766H5z M76.163,84.721L61.632,67.947L5,69.755v14.87h56.632l8.769,7.381H95  v-7.285H76.163z M75.741,76.045c6.53,0,11.823-5.295,11.823-11.824c0-6.527-5.293-11.82-11.823-11.82  c-6.527,0-11.822,5.293-11.822,11.82C63.919,70.75,69.214,76.045,75.741,76.045z M36.654,22.852c0,6.527,5.293,11.82,11.82,11.82  c6.53,0,11.823-5.293,11.823-11.82c0-6.529-5.293-11.824-11.823-11.824C41.947,11.027,36.654,16.322,36.654,22.852z M43.439,48.216  l6.179,5.715l12.966,4.769l1.335-4.957l-11.44-5.531l-7.544-9.299l-14.575-4.24L7.477,65.562h33.18L43.439,48.216z M35.83,18.898  c1.188-4.915,5.439-8.624,10.625-8.993c-1.217-2.188-3.522-3.683-6.201-3.683c-3.936,0-7.127,3.191-7.127,7.128  C33.127,15.603,34.195,17.593,35.83,18.898z"/></svg>