<svg xmlns="http://www.w3.org/2000/svg" xmlns:xlink="http://www.w3.org/1999/xlink" version="1.1" fill="#9e1b32" x="0px" y="0px" viewBox="0 0 100 125" style="enable-background:new 0 0 100 100;" xml:space="preserve"><g><path d="M84.9,22.4H15.1c-2.5,0-4.5,2-4.5,4.5V67c0,2.5,2,4.5,4.5,4.5h47.1v-3H35.8c0.8-1.5,1.3-3.2,1.3-4.9c0-2.7-1.1-6.2-2.8-9   c1.3,0.5,2.7,0.8,4.2,0.8c0.4,0,0.9,0,1.3-0.1c0.1,0,0.3,0,0.4-0.1c0.3,0,0.6-0.1,0.9-0.2c0.2,0,0.3-0.1,0.5-0.1   c0.3-0.1,0.5-0.1,0.8-0.2c0.2-0.1,0.3-0.1,0.4-0.2c0.3-0.1,0.5-0.2,0.8-0.3c0.1-0.1,0.3-0.1,0.4-0.2c0.3-0.1,0.5-0.3,0.8-0.4   c0.1-0.1,0.2-0.1,0.3-0.2c0.3-0.2,0.6-0.4,0.9-0.7c0,0,0.1,0,0.1-0.1c0.6-0.5,1.2-1,1.7-1.6h4.2c2.3,2.7,5.7,4.3,9.2,4.3   c0,0,0,0,0.1,0c0,0,0,0,0.1,0c0.3,0,0.6,0,0.9,0c0.5-3.7,3.6-6.6,7.5-6.6c0.8,0,1.5,0.1,2.3,0.4c1-1.8,1.6-3.8,1.6-5.9   c0-1.2-0.2-2.3-0.5-3.3c-0.2-0.7-0.3-1.3-0.6-1.9c-0.1-0.2-0.2-0.3-0.4-0.4c-1.3-2.5-3.4-4.5-5.2-6.4c-2-2-3.8-3.8-4.5-5.8h22.4   c0.8,0,1.5,0.7,1.5,1.5v30.2l3,1.7v-32C89.4,24.4,87.4,22.4,84.9,22.4z M35.6,63.6c0,1.8-0.5,3.5-1.5,4.9H15.1   c-0.8,0-1.5-0.7-1.5-1.5V26.9c0-0.8,0.7-1.5,1.5-1.5h22.5c-0.5,2.6-2.5,4.1-4.6,5.9c-2.6,2.1-5.5,4.5-6.4,9c0,0.1,0,0.2,0,0.2   c-0.1,0.3-0.1,0.6-0.1,1c0,0.1,0,0.2,0,0.3c0,0.4-0.1,0.9-0.1,1.3c0,4.3,2.2,8,5.6,10.2c0,0.2,0,0.4,0.1,0.5   C34.2,56.7,35.6,60.6,35.6,63.6z M48.9,49.6c0.4-0.7,0.8-1.4,1.1-2.2c0.3,0.8,0.6,1.5,1.1,2.2H48.9z M65.8,32.3   c1.6,1.6,3.3,3.3,4.5,5.2c-5.6,0.1-15.5,1.6-18.3,10.8c-0.9-1.5-1.3-3.3-1.3-5.2c0,0,0-0.1,0-0.1c0,0,0,0,0,0   c0.5-2.9,1.8-5.3,3.6-6.9c0.3-0.3,0.3-0.8,0.1-1.1c-0.3-0.3-0.8-0.3-1.1-0.1c-1.5,1.3-2.7,3.2-3.4,5.3c-0.7-2.1-1.9-3.9-3.4-5.3   c-0.3-0.3-0.8-0.3-1.1,0.1c-0.3,0.3-0.3,0.8,0.1,1.1c1.8,1.6,3.1,4.1,3.6,6.9c0,0.1,0.1,0.2,0.1,0.3c0,1.9-0.6,3.6-1.4,5.1   c-2.8-9.6-13-11-18.6-11c1.2-2.1,3-3.6,4.7-5c2.3-1.9,4.7-3.8,5.2-7.1h21.7C61.5,27.9,63.6,30,65.8,32.3z"/><path d="M87.1,62.8l-15.8-9.1c-0.5-0.3-1-0.4-1.5-0.4c-1.6,0-3,1.3-3,3v18.3c0,1.8,1.4,3,3,3c0.5,0,1-0.1,1.5-0.4L87.1,68   C89.1,66.9,89.1,64,87.1,62.8z"/></g></svg>